<?xml version="1.0" encoding="UTF-8" standalone="no"?>
<!-- Created with Inkscape (http://www.inkscape.org/) -->

<svg
   xmlns:dc="http://purl.org/dc/elements/1.1/"
   xmlns:cc="http://creativecommons.org/ns#"
   xmlns:rdf="http://www.w3.org/1999/02/22-rdf-syntax-ns#"
   xmlns:svg="http://www.w3.org/2000/svg"
   xmlns="http://www.w3.org/2000/svg"
   xmlns:sodipodi="http://sodipodi.sourceforge.net/DTD/sodipodi-0.dtd"
   xmlns:inkscape="http://www.inkscape.org/namespaces/inkscape"
   width="470"
   height="450"
   viewBox="0 0 124.35417 119.06251"
   version="1.1"
   id="svg8"
   sodipodi:docname="logo_.svg"
   inkscape:version="0.92.4 5da689c313, 2019-01-14">
  <defs
     id="defs2" />
  <sodipodi:namedview
     id="base"
     pagecolor="#ffffff"
     bordercolor="#666666"
     borderopacity="1.0"
     inkscape:pageopacity="0.0"
     inkscape:pageshadow="2"
     inkscape:zoom="1"
     inkscape:cx="117.07204"
     inkscape:cy="73.308751"
     inkscape:document-units="px"
     inkscape:current-layer="layer1"
     showgrid="false"
     units="px"
     inkscape:window-width="2477"
     inkscape:window-height="1369"
     inkscape:window-x="83"
     inkscape:window-y="34"
     inkscape:window-maximized="1"
     fit-margin-top="0"
     fit-margin-left="0"
     fit-margin-right="0"
     fit-margin-bottom="0" />
  <metadata
     id="metadata5">
    <rdf:RDF>
      <cc:Work
         rdf:about="">
        <dc:format>image/svg+xml</dc:format>
        <dc:type
           rdf:resource="http://purl.org/dc/dcmitype/StillImage" />
        <dc:title></dc:title>
      </cc:Work>
    </rdf:RDF>
  </metadata>
  <g
     inkscape:label="Layer 1"
     inkscape:groupmode="layer"
     id="layer1"
     transform="translate(-66.897784,-36.914566)">
    <g
       transform="matrix(2.8171301,-0.35493507,0.35493507,2.8171301,-177.95841,-248.10155)"
       style="fill:#ffb74d;fill-opacity:1;stroke:#ffb74d;stroke-width:0.79374999;stroke-miterlimit:4;stroke-dasharray:none;stroke-opacity:1"
       id="g997" />
    <g
       id="g943">
      <path
         id="path829"
         transform="matrix(0.26458335,0,0,0.26458335,66.897784,36.914566)"
         d="M 11.519531 328.81445 C 10.219389 328.79408 9.1661648 329.30694 8.5136719 330.55273 C 7.8774925 331.92801 7.9378364 333.70142 8.8457031 335.125 C 10.172682 337.30523 16.47584 343.63511 22.177734 347.77344 C 25.028682 349.8426 27.748262 351.52329 29.810547 351.83008 C 31.942473 352.04714 33.167188 350.83956 32.765625 347.65234 C 32.464453 345.26193 27.318656 339.11103 22.054688 334.59375 C 18.435709 331.48812 14.379845 328.85928 11.519531 328.81445 z M 189.10742 342.92578 C 182.86236 343.06638 179.45877 348.25472 177.32617 354.4375 C 175.19361 360.62028 174.21832 367.80094 172.95312 372.14648 C 170.85129 379.69174 168.52033 387.1281 166.76172 394.7793 C 165.20712 401.40349 164.68049 408.23179 163.58008 414.8457 C 163.48257 415.52927 163.05981 417.01653 162.75 418.38672 C 162.44008 419.75706 162.46245 425.77632 162.47266 426.23047 C 162.57244 430.65887 164.87815 432.08331 170.21484 431.96289 C 175.55157 431.8427 176.41997 425.00724 176.83398 418.18164 C 177.0978 414.76748 177.13024 411.24455 177.62891 408.16602 C 178.01642 405.20355 178.87617 403.02631 180.44531 402.08203 C 182.91006 400.54955 200.62743 400.26344 204.60156 400.17383 C 209.93829 400.05364 212.46972 401.47218 213.88867 403.93945 C 214.59813 405.17317 215.19846 406.63628 215.58008 408.44531 C 216.07523 410.25185 216.46276 412.28934 217.19531 414.54492 C 217.56684 415.89977 217.83286 417.71158 218.10352 419.63672 C 218.37413 421.56197 218.53678 423.71635 219.03711 425.75 C 219.91902 429.59268 221.81633 433.07143 226.01758 432.97656 C 229.19692 432.90135 233.14752 431.79312 233.05273 427.5918 C 232.97336 424.07185 230.97941 416.27807 228.86719 408.25977 C 226.755 400.24142 224.40804 391.88835 223.61914 387.13477 C 220.23903 368.23902 213.52007 342.37492 189.10742 342.92578 z M 296.9375 343.49414 C 290.6961 343.23751 286.96716 348.19991 284.44531 354.23438 C 281.9235 360.26884 280.49433 367.37068 278.95508 371.62695 C 276.37718 379.02315 273.57803 386.2966 271.33594 393.82031 C 269.36284 400.33214 268.40199 407.11404 266.88281 413.64453 C 266.74108 414.32061 266.22663 415.77722 265.83008 417.125 C 265.43357 418.47278 265.07141 424.48159 265.05273 424.93555 C 264.87056 429.36126 267.08051 430.9308 272.41406 431.15039 C 277.74762 431.37036 279.04885 424.60179 279.89648 417.81641 C 280.37705 414.42598 280.63462 410.9136 281.32812 407.87305 C 281.90344 404.94127 282.90128 402.82289 284.52734 401.98047 C 287.08465 400.60797 304.78211 401.45012 308.75391 401.61328 C 314.08746 401.83325 316.5242 403.41027 317.7832 405.96289 C 318.41272 407.2392 318.91789 408.73861 319.18359 410.56836 C 319.56272 412.40272 319.82075 414.45821 320.4082 416.75586 C 320.6928 418.13165 320.84475 419.95793 320.99219 421.89648 C 321.13959 423.83493 321.16338 425.99532 321.5332 428.05664 C 322.16873 431.94763 323.84031 435.54002 328.03906 435.71289 C 331.21651 435.84366 335.22951 434.98635 335.40234 430.78711 C 335.5471 427.26916 334.05456 419.36501 332.45703 411.22852 C 330.8595 403.09202 329.04914 394.60469 328.56445 389.81055 C 326.39402 370.73796 321.33571 344.4984 296.9375 343.49414 z M 112.05078 346.4707 C 111.76031 346.46409 111.44748 346.47079 111.10742 346.49219 C 107.1401 346.74201 103.41323 347.20405 103.04688 352.23438 C 102.42681 360.46702 102.73494 368.98205 102.79492 377.17188 C 103.07824 394.33792 103.5873 411.48931 104.66406 428.60547 C 105.21309 437.33357 113.88456 437.69875 120.45898 437.28516 C 123.97289 437.06405 127.57264 436.3824 131.20703 436.26758 C 134.72808 436.16024 138.15016 436.29009 141.66406 436.06445 C 144.61122 435.87888 148.01889 435.78088 150.80273 434.80859 C 153.58658 433.83631 155.62585 431.88732 155.36914 427.80664 C 154.99115 421.79901 149.12567 422.62295 144.93164 422.88672 C 137.56379 423.35035 130.96754 423.42341 123.48633 423.89453 C 122.57951 423.9482 121.56697 424.12885 120.66016 424.18555 C 119.75334 424.23922 118.9666 424.40725 118.16602 424.34375 C 116.91201 424.30973 115.96234 423.68495 115.83398 421.64453 C 115.6201 418.2439 116.09269 413.09254 116.10547 409.67773 C 116.27706 396.12473 116.80754 395.52207 115.95898 382.0332 C 115.65239 377.15901 115.78719 359.39947 115.48047 354.52539 C 115.40212 353.27849 115.44488 352.13655 115.50195 351.22266 C 115.55131 350.19565 115.49395 349.28818 115.33789 348.61523 C 114.95299 347.24537 114.0841 346.51703 112.05078 346.4707 z M 356.45508 346.52344 C 353.67692 346.59725 351.36127 347.47728 350.54883 351.17188 C 348.75574 359.23073 347.84043 367.70237 346.72656 375.81641 C 344.54774 392.84597 342.59535 409.89446 341.20898 426.98828 C 340.50199 435.70504 349.03182 437.30735 355.59766 437.83984 C 359.10699 438.12444 362.7674 437.96622 366.38086 438.37305 C 369.88097 438.77118 373.24848 439.38555 376.75781 439.66992 C 379.70116 439.90917 383.08802 440.29794 385.98242 439.73438 C 388.87682 439.17206 391.1753 437.5343 391.50586 433.45898 C 391.99198 427.45917 386.06941 427.43544 381.88086 427.0957 C 374.52254 426.49903 367.98316 425.62543 360.51172 425.01953 C 359.60599 424.94432 358.57948 424.97724 357.67383 424.9043 C 356.7681 424.82908 355.96679 424.88227 355.18359 424.70312 C 353.94754 424.48845 353.09644 423.73488 353.26172 421.69727 C 353.53762 418.30106 354.74226 413.27229 355.24414 409.89453 C 357.35561 396.5059 357.96807 395.98497 359.06055 382.51367 C 359.45547 377.64583 362.13253 360.08659 362.52734 355.21875 C 362.6241 353.97355 362.83271 352.85158 363.01953 351.95508 C 363.21493 350.94523 363.28867 350.04 363.23047 349.35156 C 363.01919 347.73914 362.06457 346.86289 359.34766 346.64258 C 358.3571 346.56236 357.38113 346.49883 356.45508 346.52344 z M 420.01172 352.04688 C 417.7293 352.00379 415.87197 352.23189 414.39648 353.08398 C 411.34625 354.6608 410.05351 358.73789 409.04688 367.08203 C 408.2034 374.07302 408.3888 381.0748 407.55859 387.95312 C 406.08945 400.13099 406.10003 412.37238 404.64453 424.4375 C 404.44044 426.12891 403.63983 429.92119 403.42969 433.55664 C 403.2203 437.19217 403.3443 440.8696 405.29688 441.79102 C 406.49635 442.27929 407.70885 442.6525 408.94922 442.80273 C 415.15089 443.55074 416.89599 436.6701 417.56641 432.06055 C 417.88313 430.38278 417.97359 428.67737 418.13672 427.32422 C 418.89867 421.00976 417.3931 414.53665 418.17188 408.10938 C 418.86515 402.35875 421.14329 401.48972 426.78125 402.16992 C 430.27675 402.59164 433.692 403.68968 437.1875 404.11133 C 442.37441 404.73699 445.55024 403.05988 446.2168 397.53516 C 446.72008 393.36305 444.30301 391.58358 440.58203 391.13477 C 435.95899 390.57672 431.13285 391.71183 426.50977 391.1582 C 424.70557 390.9405 423.04098 390.51072 422.18945 389.03516 C 421.5359 387.8124 422.66297 374.67907 422.93555 372.42383 C 423.02134 371.74775 423.3709 368.81456 423.76367 368.4043 C 426.00712 365.92939 432.3623 366.35351 435.51953 366.73438 C 439.91712 367.26449 444.14733 368.23318 448.54492 368.76367 C 454.0701 369.43008 453.84791 370.31782 459.37305 370.98438 L 459.36914 370.97852 C 464.55601 371.60418 468.90154 369.72643 469.51367 364.65234 C 470.2209 358.7889 463.41127 357.39569 459.01367 356.86523 L 428.70898 352.98047 C 425.10071 352.54476 422.29399 352.09302 420.01172 352.04688 z M 22.978516 355.64648 C 21.578023 355.62443 20.121879 355.70379 18.607422 355.89258 C 12.408714 356.66526 9.5481497 362.17211 8.0527344 368.53906 C 6.557319 374.90613 6.3146562 382.14632 5.4960938 386.59766 C 4.1692718 394.317 2.6035708 401.95224 1.6289062 409.74219 C 0.75320866 416.48978 0.91905777 423.33596 0.49414062 430.02734 C 0.46617212 430.71737 0.19875198 432.2402 0.029296875 433.63477 C -0.14025272 435.02934 0.49074902 441.01597 0.546875 441.4668 C 1.0948309 445.86227 3.5310532 447.047 8.828125 446.38672 C 14.125197 445.7267 14.297021 438.83642 14.017578 432.00391 C 13.933862 428.58064 13.612733 425.07417 13.796875 421.96094 C 13.882746 418.97443 14.516925 416.71946 15.982422 415.62109 C 18.279263 413.84683 35.873735 411.76906 39.818359 411.27734 C 45.115443 410.61732 47.777924 411.77314 49.439453 414.08398 C 50.270186 415.23942 51.01717 416.63346 51.580078 418.39453 C 52.255631 420.14162 52.845531 422.12911 53.802734 424.29883 C 54.309482 425.60915 54.760404 427.38357 55.224609 429.27148 C 55.688856 431.15936 56.067827 433.28731 56.771484 435.25977 C 58.038083 438.9933 60.277226 442.26202 64.447266 441.74219 C 67.602967 441.34832 71.422172 439.84194 70.902344 435.67188 C 70.466859 432.17808 67.692753 424.62639 64.779297 416.86328 C 61.865829 409.10013 58.686218 401.02829 57.419922 396.37891 C 52.473182 379.07623 43.985912 355.97728 22.978516 355.64648 z M 191.95508 358.30859 L 191.95508 358.31055 C 202.06078 358.08189 211.15756 373.55543 211.35742 382.41211 C 211.39144 384.00178 211.08288 385.37293 210.08398 386.41797 C 208.74705 387.58418 190.03061 388.802 186.96484 388.87109 L 184.91992 388.91406 C 184.23866 388.9254 183.7813 388.82657 183.43555 388.60547 C 182.86268 388.39079 182.39127 387.60783 182.34766 385.67773 C 182.28114 382.72558 183.58553 380.08363 184.0918 377.3457 C 184.50237 375.4051 185.18901 370.61728 186.57031 366.38281 C 187.94651 361.92116 189.68415 358.35988 191.95508 358.30859 z M 298.79883 359.0293 L 298.79883 359.03125 C 308.89856 359.44654 316.9913 375.46693 316.62695 384.31836 C 316.56157 385.90705 316.16489 387.2551 315.10156 388.23438 C 313.69308 389.31309 294.937 389.33683 291.87305 389.21094 L 289.83008 389.125 C 289.14916 389.09098 288.70027 388.96417 288.36914 388.72266 C 287.81109 388.47283 287.38934 387.65946 287.46875 385.73047 C 287.59007 382.77991 289.06071 380.22556 289.74023 377.52539 C 290.2736 375.61484 291.26405 370.88227 292.91211 366.74414 C 294.56951 362.37916 296.52922 358.93594 298.79883 359.0293 z M 23.939453 370.83984 C 33.682574 370.56012 43.680596 384.40568 44.742188 392.92188 C 44.938912 394.49975 44.768368 395.89442 43.880859 397.03516 C 42.668909 398.33082 24.171913 401.43901 21.128906 401.81836 L 19.099609 402.07031 C 18.42341 402.15611 17.958014 402.10575 17.591797 401.91602 C 17.000165 401.7603 16.451723 401.02766 16.212891 399.11133 C 15.847599 396.18106 16.87719 393.41965 17.103516 390.64453 C 17.315472 388.67241 17.513638 383.84101 18.458984 379.48828 C 19.376211 374.91018 20.743971 371.19113 22.998047 370.91016 C 23.311504 370.87108 23.625159 370.84887 23.939453 370.83984 z "
         style="font-style:normal;font-variant:normal;font-weight:normal;font-stretch:normal;font-size:10.58333302px;line-height:1.25;font-family:xkcd;-inkscape-font-specification:'xkcd, Normal';font-variant-ligatures:normal;font-variant-caps:normal;font-variant-numeric:normal;font-feature-settings:normal;text-align:start;letter-spacing:0px;word-spacing:0px;writing-mode:lr-tb;text-anchor:start;fill:#000000;fill-opacity:1;stroke:none;stroke-width:2.83940101" />
      <g
         id="g928">
        <path
           sodipodi:nodetypes="ssssssccccccccccccccs"
           inkscape:connector-curvature="0"
           style="opacity:1;fill:#ffb74d;fill-opacity:1;stroke:none;stroke-width:7.51258278;stroke-linecap:round;stroke-linejoin:round;stroke-miterlimit:4;stroke-dasharray:none;stroke-dashoffset:0;stroke-opacity:1"
           d="m 130.83245,54.285697 c -2.21479,-0.261178 -4.72499,1.901497 -4.94061,3.729981 -0.21562,1.828484 1.40502,3.522494 3.61981,3.783672 2.21478,0.261177 4.18502,-1.009381 4.40064,-2.837865 0.21562,-1.828484 -0.86505,-4.414611 -3.07984,-4.675788 z m -33.755252,21.855786 -1.043413,8.848148 -7.542493,-0.889444 c -1.957675,3.038571 -1.072729,6.226759 0.293428,9.440277 l 5.351253,0.623479 -1.383775,18.653567 12.743102,3.5252 43.38368,5.03986 c 3.88917,-1.44852 5.69399,-3.8896 5.86588,-7.10825 l 0.63084,-14.533072 7.56872,0.892542 1.60797,-4.786367 -0.83896,-4.255498 -5.70945,-1.357354 -0.68305,-6.988879 z"
           id="rect930" />
        <g
           id="g870"
           transform="matrix(0.98376765,0.11601025,-0.11601025,0.98376765,84.494924,20.548177)">
          <path
             id="path868"
             d="M 82.246,10.524 C 81.401,9.68 81.107455,8.2511593 81.952455,7.4051593 82.796455,6.5611593 84.458,6.622 85.303,7.466 l 0.29,0.291 c 0.848,0.846 0.848,2.214 0,3.059 -0.422,0.422 -0.975,0.633 -1.528,0.633 -0.553,0 -1.106,-0.211 -1.528,-0.633 z m -0.291,24.082 c 3.446,0 6.242894,2.805021 6.255,6.253 0.0116,3.303355 -2.753797,5.564551 -6.255,6.253 -3.385178,0.665635 -6.255,-2.805 -6.255,-6.253 0,-3.448 2.805,-6.253 6.255,-6.253 z m 0.140681,3.22744 c -0.995287,0.373325 -2.895747,1.722973 -2.907802,2.786904 -0.0158,1.394531 1.704168,2.944893 2.638058,2.790359 1.455518,-0.240851 3.826903,-0.881285 3.589227,-2.732265 -0.240846,-1.875671 -2.300553,-3.227191 -3.319483,-2.844998 z m 8.520507,27.636017 v 2.592 c 0,3.38 -1.894492,5.352369 -5.269492,5.352369 h -1.806 c -0.432545,2.2015 -0.0972,8.605706 0.282304,12.907174 0.450672,5.108158 -4.170599,9.219665 -9.294,9.298 C 66.322076,95.744481 58.865886,95.958524 52.914723,95.56088 43.268056,94.91631 36.321801,95.044595 25.668,95.619 c -5.119564,0.276024 -9.851705,-4.20009 -9.297,-9.298 0.471606,-4.334211 0.04175,-11.107569 0,-11.658 H 14.57 c -3.377,0 -5.0461411,-2.740463 -5.0461411,-6.120463 v -2.592 c 0,-3.379 1.7947491,-5.069379 5.1717491,-5.069379 h 1.801 L 16.371,53.425 c -0.02011,-1.193831 0.97,-2.163 2.163,-2.163 l 18.106377,0.712827 C 53.042243,52.447085 67.530218,51.945657 81.66,51.262 c 1.193604,-0.05775 2.163,0.969 2.163,2.163 v 6.391 h 1.806 c 3.375,0 4.987188,2.274457 4.987188,5.653457 z M 16.594269,64.318166 14.57,64.142 c -0.991253,-0.08627 -1.756977,0.809976 -1.801,1.802 l -0.175852,3.9627 c -0.0442,0.99602 0.807,1.802 1.801,1.802 h 1.801 z M 79.501,55.589 H 20.695 l -0.951482,31.249192 c -0.08342,2.73973 2.238165,4.760507 4.973,4.972 10.839603,0.838258 22.310355,0.159804 33.563628,0.5427 5.295169,0.18017 11.038563,0.300276 16.558478,-0.15143 2.731868,-0.223554 4.998831,-2.230132 4.972,-4.972 z m 8.269398,9.233889 c 0,-0.993 -0.809,-1.802 -1.801,-1.802 l -2.287708,-0.07819 0.0157,6.328145 2.272007,-0.05495 c 0.99171,-0.02399 1.801,-0.805 1.801,-1.802 z M 76.257,24.165 c 0.553,0 1.106,-0.211 1.528,-0.633 l 0.29,-0.291 C 78.92,22.397 79.495988,21.054534 78.650988,20.210534 77.806988,19.364534 75.863,19.337 75.019,20.181 l -0.291,0.292 c -0.848,0.842 -0.848,2.213 -0.004,3.057 0.422,0.424 0.979,0.635 1.533,0.635 z M 58.332,46.988 c 0,1.195 0.968,2.163 2.163,2.163 1.194,0 2.299034,-0.975768 2.163,-2.163 -0.23721,-2.070247 0.976199,-3.72261 3.096,-3.097 1.639107,0.483744 3.099,1.388 3.099,3.097 0,1.195 0.968,2.163 2.163,2.163 1.195,0 2.10694,-0.969316 2.163,-2.163 0.137507,-2.92794 -3.216786,-6.462941 -7.425,-7.423 -3.99047,-0.910383 -7.422,3.33 -7.422,7.423 z M 18.241774,44.592889 c -0.275,-1.163 0.443,-2.328 1.606,-2.603 0,0 8.591988,-2.331438 12.462522,-3.389517 C 36.18083,37.542294 43.04,35.595 43.04,35.595 L 42.625,33.84 c -1.079612,-2.990287 0.540632,-4.992481 2.148858,-6.006523 1.608226,-1.014041 2.564391,-1.401942 6.256821,-1.578058 C 54.72311,26.079304 56.360164,27.673635 57.073,30.425 L 57.488,32.179 69.394431,29.363444 80.979,26.624 c 1.163,-0.274 1.953803,-0.457611 2.226803,0.705389 0.277,1.163 -0.442,2.328 -1.605,2.603 l -9.87516,2.494693 C 66.814991,33.667626 58.57624,35.493645 52.281656,36.886095 45.987072,38.278545 38.648593,40.058526 33.383014,41.43933 28.117436,42.820135 20.543,45.357 20.543,45.357 c -0.168,0.039 -0.335,0.06 -0.5,0.06 -0.979,-0.001 -1.565226,0.170889 -1.801226,-0.824111 z M 46.555778,32.203828 c 0.1135,0.4835 0.693222,2.395172 0.693222,2.395172 0,0 1.706948,-0.322794 2.720246,-0.558653 C 50.982544,33.804488 53.279,33.174 53.279,33.174 c 0,0 -0.219786,-1.157679 -0.415,-1.754 -0.195214,-0.596321 -0.517755,-1.780989 -1.951171,-1.936192 -1.433416,-0.155203 -2.061706,0.214975 -3.019051,0.55202 -0.957346,0.337045 -1.4515,1.6845 -1.338,2.168 z"
             inkscape:connector-curvature="0"
             sodipodi:nodetypes="cccccsccssssssssssssscssssscsssscsscsscsscssssccccssssscssccssssccccccsssssssssscczcczzcczccczzzccczczczzzz" />
        </g>
        <g
           id="g974"
           style="fill:#000000;fill-opacity:1"
           transform="matrix(2.8171301,-0.35493507,0.35493507,2.8171301,-177.95841,-249.60407)" />
      </g>
    </g>
  </g>
</svg>
