<?xml version="1.0" encoding="UTF-8" standalone="no"?>
<!-- Created with Inkscape (http://www.inkscape.org/) -->

<svg
   xmlns:dc="http://purl.org/dc/elements/1.1/"
   xmlns:cc="http://creativecommons.org/ns#"
   xmlns:rdf="http://www.w3.org/1999/02/22-rdf-syntax-ns#"
   xmlns:svg="http://www.w3.org/2000/svg"
   xmlns="http://www.w3.org/2000/svg"
   xmlns:xlink="http://www.w3.org/1999/xlink"
   xmlns:sodipodi="http://sodipodi.sourceforge.net/DTD/sodipodi-0.dtd"
   xmlns:inkscape="http://www.inkscape.org/namespaces/inkscape"
   width="480"
   height="450"
   viewBox="0 0 127 119.06251"
   version="1.1"
   id="svg8"
   sodipodi:docname="logo.svg"
   inkscape:version="0.92.2 2405546, 2018-03-11">
  <defs
     id="defs2" />
  <sodipodi:namedview
     id="base"
     pagecolor="#ffffff"
     bordercolor="#666666"
     borderopacity="1.0"
     inkscape:pageopacity="0.0"
     inkscape:pageshadow="2"
     inkscape:zoom="1"
     inkscape:cx="310.07204"
     inkscape:cy="73.308751"
     inkscape:document-units="px"
     inkscape:current-layer="layer1"
     showgrid="false"
     units="px"
     inkscape:window-width="2477"
     inkscape:window-height="1369"
     inkscape:window-x="83"
     inkscape:window-y="34"
     inkscape:window-maximized="1"
     fit-margin-top="0"
     fit-margin-left="0"
     fit-margin-right="0"
     fit-margin-bottom="0" />
  <metadata
     id="metadata5">
    <rdf:RDF>
      <cc:Work
         rdf:about="">
        <dc:format>image/svg+xml</dc:format>
        <dc:type
           rdf:resource="http://purl.org/dc/dcmitype/StillImage" />
        <dc:title></dc:title>
      </cc:Work>
    </rdf:RDF>
  </metadata>
  <g
     inkscape:label="Layer 1"
     inkscape:groupmode="layer"
     id="layer1"
     transform="translate(-66.897784,-36.914566)">
    <g
       id="g1107"
       inkscape:export-xdpi="96.000008"
       inkscape:export-ydpi="96.000008">
      <g
         transform="matrix(2.8198624,0.33253069,-0.33253069,2.8198624,-78.687023,-314.35213)"
         id="g955">
        <path
           sodipodi:nodetypes="ssssssccccccccccccccs"
           inkscape:connector-curvature="0"
           style="opacity:1;fill:#ffb74d;fill-opacity:1;stroke:none;stroke-width:10;stroke-linecap:round;stroke-linejoin:round;stroke-miterlimit:4;stroke-dasharray:none;stroke-dashoffset:0;stroke-opacity:1"
           d="m 337.82473,331.7365 c -2.96853,0 -5.94973,3.25024 -5.94973,5.701 0,2.45076 2.40647,4.4375 5.375,4.4375 2.96853,0 5.375,-1.98674 5.375,-4.4375 0,-2.45076 -1.83174,-5.701 -4.80027,-5.701 z m -41.21535,34.15412 V 377.75 H 286.5 c -2.11425,4.32199 -0.4474,8.39863 1.85953,12.43374 l 7.17123,-0.01 1.07862,24.87462 17.39516,2.67359 58.13629,-0.10064 c 4.91544,-2.52114 6.92077,-6.02945 6.64625,-10.31112 L 377.35547,388 H 387.5 l 1.3795,-6.57795 -1.77244,-5.49473 -7.75915,-0.9043 -1.99244,-9.1324 z"
           transform="matrix(0.26458333,0,0,0.26458333,0,32.41665)"
           id="rect930" />
        <g
           id="g872"
           transform="matrix(0.3488708,0,0,0.3488708,71.784096,110.29967)">
          <g
             id="g870">
            <path
               sodipodi:nodetypes="cccccsccssssssssssssscssssscsssscsscsscsscssssccccssssscssccssssccccccsssssssssscczcczzcczccczzzccczczczzzz"
               inkscape:connector-curvature="0"
               d="M 82.246,10.524 C 81.401,9.68 81.107455,8.2511593 81.952455,7.4051593 82.796455,6.5611593 84.458,6.622 85.303,7.466 l 0.29,0.291 c 0.848,0.846 0.848,2.214 0,3.059 -0.422,0.422 -0.975,0.633 -1.528,0.633 -0.553,0 -1.106,-0.211 -1.528,-0.633 z m -0.291,24.082 c 3.446,0 6.242894,2.805021 6.255,6.253 0.0116,3.303355 -2.753797,5.564551 -6.255,6.253 -3.385178,0.665635 -6.255,-2.805 -6.255,-6.253 0,-3.448 2.805,-6.253 6.255,-6.253 z m 0.140681,3.22744 c -0.995287,0.373325 -2.895747,1.722973 -2.907802,2.786904 -0.0158,1.394531 1.704168,2.944893 2.638058,2.790359 1.455518,-0.240851 3.826903,-0.881285 3.589227,-2.732265 -0.240846,-1.875671 -2.300553,-3.227191 -3.319483,-2.844998 z m 8.520507,27.636017 v 2.592 c 0,3.38 -1.894492,5.352369 -5.269492,5.352369 h -1.806 c -0.432545,2.2015 -0.0972,8.605706 0.282304,12.907174 0.450672,5.108158 -4.170599,9.219665 -9.294,9.298 C 66.322076,95.744481 58.865886,95.958524 52.914723,95.56088 43.268056,94.91631 36.321801,95.044595 25.668,95.619 c -5.119564,0.276024 -9.851705,-4.20009 -9.297,-9.298 0.471606,-4.334211 0.04175,-11.107569 0,-11.658 H 14.57 c -3.377,0 -5.0461411,-2.740463 -5.0461411,-6.120463 v -2.592 c 0,-3.379 1.7947491,-5.069379 5.1717491,-5.069379 h 1.801 L 16.371,53.425 c -0.02011,-1.193831 0.97,-2.163 2.163,-2.163 l 18.106377,0.712827 C 53.042243,52.447085 67.530218,51.945657 81.66,51.262 c 1.193604,-0.05775 2.163,0.969 2.163,2.163 v 6.391 h 1.806 c 3.375,0 4.987188,2.274457 4.987188,5.653457 z M 16.594269,64.318166 14.57,64.142 c -0.991253,-0.08627 -1.756977,0.809976 -1.801,1.802 l -0.175852,3.9627 c -0.0442,0.99602 0.807,1.802 1.801,1.802 h 1.801 z M 79.501,55.589 H 20.695 l -0.951482,31.249192 c -0.08342,2.73973 2.238165,4.760507 4.973,4.972 10.839603,0.838258 22.310355,0.159804 33.563628,0.5427 5.295169,0.18017 11.038563,0.300276 16.558478,-0.15143 2.731868,-0.223554 4.998831,-2.230132 4.972,-4.972 z m 8.269398,9.233889 c 0,-0.993 -0.809,-1.802 -1.801,-1.802 l -2.287708,-0.07819 0.0157,6.328145 2.272007,-0.05495 c 0.99171,-0.02399 1.801,-0.805 1.801,-1.802 z M 76.257,24.165 c 0.553,0 1.106,-0.211 1.528,-0.633 l 0.29,-0.291 C 78.92,22.397 79.495988,21.054534 78.650988,20.210534 77.806988,19.364534 75.863,19.337 75.019,20.181 l -0.291,0.292 c -0.848,0.842 -0.848,2.213 -0.004,3.057 0.422,0.424 0.979,0.635 1.533,0.635 z M 58.332,46.988 c 0,1.195 0.968,2.163 2.163,2.163 1.194,0 2.299034,-0.975768 2.163,-2.163 -0.23721,-2.070247 0.976199,-3.72261 3.096,-3.097 1.639107,0.483744 3.099,1.388 3.099,3.097 0,1.195 0.968,2.163 2.163,2.163 1.195,0 2.10694,-0.969316 2.163,-2.163 0.137507,-2.92794 -3.216786,-6.462941 -7.425,-7.423 -3.99047,-0.910383 -7.422,3.33 -7.422,7.423 z M 18.241774,44.592889 c -0.275,-1.163 0.443,-2.328 1.606,-2.603 0,0 8.591988,-2.331438 12.462522,-3.389517 C 36.18083,37.542294 43.04,35.595 43.04,35.595 L 42.625,33.84 c -1.079612,-2.990287 0.540632,-4.992481 2.148858,-6.006523 1.608226,-1.014041 2.564391,-1.401942 6.256821,-1.578058 C 54.72311,26.079304 56.360164,27.673635 57.073,30.425 L 57.488,32.179 69.394431,29.363444 80.979,26.624 c 1.163,-0.274 1.953803,-0.457611 2.226803,0.705389 0.277,1.163 -0.442,2.328 -1.605,2.603 l -9.87516,2.494693 C 66.814991,33.667626 58.57624,35.493645 52.281656,36.886095 45.987072,38.278545 38.648593,40.058526 33.383014,41.43933 28.117436,42.820135 20.543,45.357 20.543,45.357 c -0.168,0.039 -0.335,0.06 -0.5,0.06 -0.979,-0.001 -1.565226,0.170889 -1.801226,-0.824111 z M 46.555778,32.203828 c 0.1135,0.4835 0.693222,2.395172 0.693222,2.395172 0,0 1.706948,-0.322794 2.720246,-0.558653 C 50.982544,33.804488 53.279,33.174 53.279,33.174 c 0,0 -0.219786,-1.157679 -0.415,-1.754 -0.195214,-0.596321 -0.517755,-1.780989 -1.951171,-1.936192 -1.433416,-0.155203 -2.061706,0.214975 -3.019051,0.55202 -0.957346,0.337045 -1.4515,1.6845 -1.338,2.168 z"
               id="path868" />
          </g>
        </g>
      </g>
      <g
         transform="matrix(2.8394015,0,0,2.8394015,-123.05188,-286.90446)"
         id="g1036">
        <g
           transform="translate(0.35884942,0.52916667)"
           id="g999"
           style="fill:#ffb74d;fill-opacity:1;stroke:#ffb74d;stroke-width:0.79374999;stroke-miterlimit:4;stroke-dasharray:none;stroke-opacity:1">
          <g
             id="g997"
             style="fill:#ffb74d;fill-opacity:1;stroke:#ffb74d;stroke-width:0.79374999;stroke-miterlimit:4;stroke-dasharray:none;stroke-opacity:1"
             transform="rotate(-7.1809567,95.281516,156.32777)" />
        </g>
        <g
           id="g983"
           transform="translate(0.35884942)">
          <path
             sodipodi:nodetypes="czc"
             inkscape:connector-curvature="0"
             id="path957"
             d="m 67.49967,155.97707 c 0,0 9.445093,-1.5875 21.761981,-1.5875 12.316889,0 21.761979,1.5875 21.761979,1.5875"
             style="fill:none;stroke:none;stroke-width:0.26458332px;stroke-linecap:butt;stroke-linejoin:miter;stroke-opacity:1" />
          <text
             xml:space="preserve"
             style="font-style:normal;font-weight:normal;font-size:10.58333302px;line-height:1.25;font-family:sans-serif;letter-spacing:0px;word-spacing:0px;fill:#000000;fill-opacity:1;stroke:none;stroke-width:0.26458332"
             id="text965"><textPath
               id="textPath967"
               xlink:href="#path957"><tspan
   style="font-style:normal;font-variant:normal;font-weight:normal;font-stretch:normal;font-size:10.58333302px;font-family:xkcd;-inkscape-font-specification:'xkcd, Normal';font-variant-ligatures:normal;font-variant-caps:normal;font-variant-numeric:normal;font-feature-settings:normal;text-align:start;writing-mode:lr-tb;text-anchor:start;fill:#000000;fill-opacity:1;stroke-width:0.26458332"
   id="tspan963">A la Alf</tspan></textPath></text>
          <g
             transform="rotate(-7.1809567,95.281516,156.32777)"
             style="fill:#000000;fill-opacity:1"
             id="g974">
            <text
               id="text911"
               y="157.89078"
               x="-51.697273"
               style="font-style:normal;font-weight:normal;font-size:10.58333302px;line-height:1.25;font-family:sans-serif;letter-spacing:0px;word-spacing:0px;fill:#000000;fill-opacity:1;stroke:none;stroke-width:0.26458332"
               xml:space="preserve"
               transform="rotate(-45)"><tspan
                 style="font-style:normal;font-variant:normal;font-weight:normal;font-stretch:normal;font-size:10.58333302px;font-family:xkcd;-inkscape-font-specification:'xkcd, Normal';font-variant-ligatures:normal;font-variant-caps:normal;font-variant-numeric:normal;font-feature-settings:normal;text-align:start;writing-mode:lr-tb;text-anchor:start;fill:#000000;fill-opacity:1;stroke-width:0.26458332"
                 y="157.89078"
                 x="-51.697273"
                 id="tspan909"
                 sodipodi:role="line">'</tspan></text>
          </g>
        </g>
      </g>
    </g>
  </g>
</svg>
